# xmcd CD database file
#
# Track frame offsets:
#	150
#	25058
#	48844
#
# Disc length: 883 seconds
#
# Revision: 0
# Processed by: cddbd v1.5PL3 Copyright (c) Steve Scherf et al.
# Submitted via: CDex 1.51
#
DISCID=18037103
DTITLE=ナポレナポレ - 紫陽花
DYEAR=1900
DGENRE=Pop
TTITLE0=紫陽花
TTITLE1=トカゲ
TTITLE2=ペーパードリーム
EXTD=
EXTT0=
EXTT1=
EXTT2=
PLAYORDER=
